<svg id="SvgjsSvg1497" width="799.5" height="801" xmlns="http://www.w3.org/2000/svg" version="1.1" xmlns:xlink="http://www.w3.org/1999/xlink" xmlns:svgjs="http://svgjs.com/svgjs"><defs id="SvgjsDefs1498"></defs><g id="SvgjsG1499" transform="translate(98.5,144)"><path id="SvgjsPath1500" d="M 0 0L 200 0L 200 153L 0 153Z" stroke="rgba(50,50,50,1)" stroke-width="2" fill-opacity="1" fill="#66cc00"></path><g id="SvgjsG1501"><text id="SvgjsText1502" font-family="微软雅黑" text-anchor="middle" font-size="20px" width="180px" fill="#323232" font-weight="700" align="middle" anchor="middle" family="微软雅黑" size="20px" weight="700" font-style="" opacity="1" y="48.5" transform="rotate(0)"><tspan id="SvgjsTspan1503" dy="25" x="100"><tspan id="SvgjsTspan1504" style="text-decoration:;">伊甸园</tspan></tspan><tspan id="SvgjsTspan1505" dy="25" x="100"><tspan id="SvgjsTspan1506" style="text-decoration:;">（Eden）</tspan></tspan></text></g></g><g id="SvgjsG1507" transform="translate(98.5,297)"><path id="SvgjsPath1508" d="M 0 0L 100 0L 100 38L 0 38Z" stroke="rgba(50,50,50,1)" stroke-width="2" fill-opacity="1" fill="#ff6666"></path><g id="SvgjsG1509"><text id="SvgjsText1510" font-family="微软雅黑" text-anchor="middle" font-size="20px" width="80px" fill="#323232" font-weight="700" align="middle" anchor="middle" family="微软雅黑" size="20px" weight="700" font-style="" opacity="1" y="3.5" transform="rotate(0)"><tspan id="SvgjsTspan1511" dy="25" x="50"><tspan id="SvgjsTspan1512" style="text-decoration:;">S0</tspan></tspan></text></g></g><g id="SvgjsG1513" transform="translate(198.5,297)"><path id="SvgjsPath1514" d="M 0 0L 100 0L 100 38L 0 38Z" stroke="rgba(50,50,50,1)" stroke-width="2" fill-opacity="1" fill="#ff6666"></path><g id="SvgjsG1515"><text id="SvgjsText1516" font-family="微软雅黑" text-anchor="middle" font-size="20px" width="80px" fill="#323232" font-weight="700" align="middle" anchor="middle" family="微软雅黑" size="20px" weight="700" font-style="" opacity="1" y="3.5" transform="rotate(0)"><tspan id="SvgjsTspan1517" dy="25" x="50"><tspan id="SvgjsTspan1518" style="text-decoration:;">S1</tspan></tspan></text></g></g><g id="SvgjsG1519" transform="translate(24.99999999999997,349)"><path id="SvgjsPath1520" d="M 0 0L 349 0L 349 51L 0 51Z" stroke="none" fill="none"></path><g id="SvgjsG1521"><text id="SvgjsText1522" font-family="微软雅黑" text-anchor="middle" font-size="16px" width="349px" fill="#323232" font-weight="700" align="middle" anchor="middle" family="微软雅黑" size="16px" weight="700" font-style="" opacity="1" y="13.1" transform="rotate(0)"><tspan id="SvgjsTspan1523" dy="20" x="174.5"><tspan id="SvgjsTspan1524" style="text-decoration:;">新生代（Young / New generation）</tspan></tspan></text></g></g><g id="SvgjsG1525" transform="matrix(-1.8369701987210297e-16,-1,1,-1.8369701987210297e-16,99.49999999999984,441.99999999999994)"><path id="SvgjsPath1526" d="M 100.99999999999977 0Q 91.99999999999977 0 91.99999999999977 9L 91.99999999999977 91.00000000000006Q 91.99999999999977 100.00000000000006 78.99999999999977 100.00000000000006Q 91.99999999999977 100.00000000000006 91.99999999999977 109.00000000000006L 91.99999999999977 191.0000000000001Q 91.99999999999977 200.0000000000001 100.99999999999977 200.0000000000001" stroke="rgba(50,50,50,1)" stroke-width="2" fill="none"></path><path id="SvgjsPath1527" d="M 0 0L 100.99999999999977 0L 100.99999999999977 200.0000000000001L 0 200.0000000000001Z" stroke="none" fill="none"></path><g id="SvgjsG1528"><text id="SvgjsText1529" font-family="微软雅黑" text-anchor="end" font-size="13px" width="74px" fill="#323232" font-weight="400" align="middle" anchor="end" family="微软雅黑" size="13px" weight="400" font-style="" opacity="1" y="90.05000000000005" transform="rotate(0)"></text></g></g><g id="SvgjsG1530" transform="translate(311.5,144)"><path id="SvgjsPath1531" d="M 0 0L 175 0L 175 191L 0 191Z" stroke="rgba(50,50,50,1)" stroke-width="2" fill-opacity="1" fill="#66b2ff"></path><g id="SvgjsG1532"><text id="SvgjsText1533" font-family="微软雅黑" text-anchor="middle" font-size="20px" width="155px" fill="#323232" font-weight="700" align="middle" anchor="middle" family="微软雅黑" size="20px" weight="700" font-style="" opacity="1" y="55" transform="rotate(0)"><tspan id="SvgjsTspan1534" dy="25" x="87.5"><tspan id="SvgjsTspan1535" style="text-decoration:;">老年代</tspan></tspan><tspan id="SvgjsTspan1536" dy="25" x="87.5"><tspan id="SvgjsTspan1537" style="text-decoration:;">（Tenured / Old </tspan></tspan><tspan id="SvgjsTspan1538" dy="25" x="87.5"><tspan id="SvgjsTspan1539" style="text-decoration:;">generation）</tspan></tspan></text></g></g><g id="SvgjsG1540" transform="matrix(-1.8369701987210297e-16,-1,1,-1.8369701987210297e-16,100.5,137.00000000000003)"><path id="SvgjsPath1541" d="M 0 387Q 9 387 9 378L 9 202.5Q 9 193.5 22 193.5Q 9 193.5 9 184.5L 9 9Q 9 0 0 0" stroke="rgba(50,50,50,1)" stroke-width="2" fill="none"></path><path id="SvgjsPath1542" d="M 0 0L 111.99999999999999 0L 111.99999999999999 387L 0 387Z" stroke="none" fill="none"></path><g id="SvgjsG1543"><text id="SvgjsText1544" font-family="微软雅黑" text-anchor="start" font-size="13px" width="85px" fill="#323232" font-weight="400" align="middle" anchor="start" family="微软雅黑" size="13px" weight="400" font-style="" opacity="1" y="183.55" transform="rotate(0)"></text></g></g><g id="SvgjsG1545" transform="translate(119.50000000000006,78)"><path id="SvgjsPath1546" d="M 0 0L 349 0L 349 51L 0 51Z" stroke="none" fill="none"></path><g id="SvgjsG1547"><text id="SvgjsText1548" font-family="微软雅黑" text-anchor="middle" font-size="16px" width="349px" fill="#323232" font-weight="700" align="middle" anchor="middle" family="微软雅黑" size="16px" weight="700" font-style="" opacity="1" y="13.1" transform="rotate(0)"><tspan id="SvgjsTspan1549" dy="20" x="174.5"><tspan id="SvgjsTspan1550" style="text-decoration:;">堆空间（Java Heap Space）</tspan></tspan></text></g></g><g id="SvgjsG1551" transform="translate(501.5,144)"><path id="SvgjsPath1552" d="M 0 0L 103 0L 103 191L 0 191Z" stroke="rgba(50,50,50,1)" stroke-width="2" fill-opacity="1" fill="#6666ff"></path><g id="SvgjsG1553"><text id="SvgjsText1554" font-family="微软雅黑" text-anchor="middle" font-size="20px" width="83px" fill="#323232" font-weight="700" align="middle" anchor="middle" family="微软雅黑" size="20px" weight="700" font-style="" opacity="1" y="55" transform="rotate(0)"><tspan id="SvgjsTspan1555" dy="25" x="51.5"><tspan id="SvgjsTspan1556" style="text-decoration:;">永久代</tspan></tspan><tspan id="SvgjsTspan1557" dy="25" x="51.5"><tspan id="SvgjsTspan1558" style="text-decoration:;">(Perm </tspan></tspan><tspan id="SvgjsTspan1559" dy="25" x="51.5"><tspan id="SvgjsTspan1560" style="text-decoration:;">Gen)</tspan></tspan></text></g></g><g id="SvgjsG1561" transform="translate(612.5,144)"><path id="SvgjsPath1562" d="M 0 191Q 9 191 9 182L 9 104.5Q 9 95.5 22 95.5Q 9 95.5 9 86.5L 9 9Q 9 0 0 0" stroke="rgba(50,50,50,1)" stroke-width="2" fill="none"></path><path id="SvgjsPath1563" d="M 0 0L 162 0L 162 191L 0 191Z" stroke="none" fill="none"></path><g id="SvgjsG1564"><text id="SvgjsText1565" font-family="微软雅黑" text-anchor="start" font-size="16px" width="135px" fill="#323232" font-weight="700" align="middle" anchor="start" family="微软雅黑" size="16px" weight="700" font-style="" opacity="1" y="83.1" transform="rotate(0)"><tspan id="SvgjsTspan1566" dy="20" x="27"><tspan id="SvgjsTspan1567" style="text-decoration:;">方法区 （JDK 7）</tspan></tspan></text></g></g><g id="SvgjsG1568" transform="translate(98.50000000000003,478)"><path id="SvgjsPath1569" d="M 0 0L 200 0L 200 153L 0 153Z" stroke="rgba(50,50,50,1)" stroke-width="2" fill-opacity="1" fill="#66cc00"></path><g id="SvgjsG1570"><text id="SvgjsText1571" font-family="微软雅黑" text-anchor="middle" font-size="20px" width="180px" fill="#323232" font-weight="700" align="middle" anchor="middle" family="微软雅黑" size="20px" weight="700" font-style="" opacity="1" y="48.5" transform="rotate(0)"><tspan id="SvgjsTspan1572" dy="25" x="100"><tspan id="SvgjsTspan1573" style="text-decoration:;">伊甸园</tspan></tspan><tspan id="SvgjsTspan1574" dy="25" x="100"><tspan id="SvgjsTspan1575" style="text-decoration:;">（Eden）</tspan></tspan></text></g></g><g id="SvgjsG1576" transform="translate(98.50000000000003,631)"><path id="SvgjsPath1577" d="M 0 0L 100 0L 100 38L 0 38Z" stroke="rgba(50,50,50,1)" stroke-width="2" fill-opacity="1" fill="#ff6666"></path><g id="SvgjsG1578"><text id="SvgjsText1579" font-family="微软雅黑" text-anchor="middle" font-size="20px" width="80px" fill="#323232" font-weight="700" align="middle" anchor="middle" family="微软雅黑" size="20px" weight="700" font-style="" opacity="1" y="3.5" transform="rotate(0)"><tspan id="SvgjsTspan1580" dy="25" x="50"><tspan id="SvgjsTspan1581" style="text-decoration:;">S0</tspan></tspan></text></g></g><g id="SvgjsG1582" transform="translate(198.50000000000003,631)"><path id="SvgjsPath1583" d="M 0 0L 100 0L 100 38L 0 38Z" stroke="rgba(50,50,50,1)" stroke-width="2" fill-opacity="1" fill="#ff6666"></path><g id="SvgjsG1584"><text id="SvgjsText1585" font-family="微软雅黑" text-anchor="middle" font-size="20px" width="80px" fill="#323232" font-weight="700" align="middle" anchor="middle" family="微软雅黑" size="20px" weight="700" font-style="" opacity="1" y="3.5" transform="rotate(0)"><tspan id="SvgjsTspan1586" dy="25" x="50"><tspan id="SvgjsTspan1587" style="text-decoration:;">S1</tspan></tspan></text></g></g><g id="SvgjsG1588" transform="translate(25,683)"><path id="SvgjsPath1589" d="M 0 0L 349 0L 349 51L 0 51Z" stroke="none" fill="none"></path><g id="SvgjsG1590"><text id="SvgjsText1591" font-family="微软雅黑" text-anchor="middle" font-size="16px" width="349px" fill="#323232" font-weight="700" align="middle" anchor="middle" family="微软雅黑" size="16px" weight="700" font-style="" opacity="1" y="13.1" transform="rotate(0)"><tspan id="SvgjsTspan1592" dy="20" x="174.5"><tspan id="SvgjsTspan1593" style="text-decoration:;">新生代（Young / New generation）</tspan></tspan></text></g></g><g id="SvgjsG1594" transform="matrix(-1.8369701987210297e-16,-1,1,-1.8369701987210297e-16,99.49999999999984,775.9999999999999)"><path id="SvgjsPath1595" d="M 100.99999999999977 0Q 91.99999999999977 0 91.99999999999977 9L 91.99999999999977 91.00000000000006Q 91.99999999999977 100.00000000000006 78.99999999999977 100.00000000000006Q 91.99999999999977 100.00000000000006 91.99999999999977 109.00000000000006L 91.99999999999977 191.0000000000001Q 91.99999999999977 200.0000000000001 100.99999999999977 200.0000000000001" stroke="rgba(50,50,50,1)" stroke-width="2" fill="none"></path><path id="SvgjsPath1596" d="M 0 0L 100.99999999999977 0L 100.99999999999977 200.0000000000001L 0 200.0000000000001Z" stroke="none" fill="none"></path><g id="SvgjsG1597"><text id="SvgjsText1598" font-family="微软雅黑" text-anchor="end" font-size="13px" width="74px" fill="#323232" font-weight="400" align="middle" anchor="end" family="微软雅黑" size="13px" weight="400" font-style="" opacity="1" y="90.05000000000005" transform="rotate(0)"></text></g></g><g id="SvgjsG1599" transform="translate(311.5,478)"><path id="SvgjsPath1600" d="M 0 0L 175 0L 175 191L 0 191Z" stroke="rgba(50,50,50,1)" stroke-width="2" fill-opacity="1" fill="#66b2ff"></path><g id="SvgjsG1601"><text id="SvgjsText1602" font-family="微软雅黑" text-anchor="middle" font-size="20px" width="155px" fill="#323232" font-weight="700" align="middle" anchor="middle" family="微软雅黑" size="20px" weight="700" font-style="" opacity="1" y="55" transform="rotate(0)"><tspan id="SvgjsTspan1603" dy="25" x="87.5"><tspan id="SvgjsTspan1604" style="text-decoration:;">老年代</tspan></tspan><tspan id="SvgjsTspan1605" dy="25" x="87.5"><tspan id="SvgjsTspan1606" style="text-decoration:;">（Tenured / Old </tspan></tspan><tspan id="SvgjsTspan1607" dy="25" x="87.5"><tspan id="SvgjsTspan1608" style="text-decoration:;">generation）</tspan></tspan></text></g></g><g id="SvgjsG1609" transform="matrix(-1.8369701987210297e-16,-1,1,-1.8369701987210297e-16,100.5,471)"><path id="SvgjsPath1610" d="M 0 387Q 9 387 9 378L 9 202.5Q 9 193.5 22 193.5Q 9 193.5 9 184.5L 9 9Q 9 0 0 0" stroke="rgba(50,50,50,1)" stroke-width="2" fill="none"></path><path id="SvgjsPath1611" d="M 0 0L 111.99999999999999 0L 111.99999999999999 387L 0 387Z" stroke="none" fill="none"></path><g id="SvgjsG1612"><text id="SvgjsText1613" font-family="微软雅黑" text-anchor="start" font-size="13px" width="85px" fill="#323232" font-weight="400" align="middle" anchor="start" family="微软雅黑" size="13px" weight="400" font-style="" opacity="1" y="183.55" transform="rotate(0)"></text></g></g><g id="SvgjsG1614" transform="translate(119.50000000000009,412.00000000000006)"><path id="SvgjsPath1615" d="M 0 0L 349 0L 349 51L 0 51Z" stroke="none" fill="none"></path><g id="SvgjsG1616"><text id="SvgjsText1617" font-family="微软雅黑" text-anchor="middle" font-size="16px" width="349px" fill="#323232" font-weight="700" align="middle" anchor="middle" family="微软雅黑" size="16px" weight="700" font-style="" opacity="1" y="13.1" transform="rotate(0)"><tspan id="SvgjsTspan1618" dy="20" x="174.5"><tspan id="SvgjsTspan1619" style="text-decoration:;">堆空间（Java Heap Space）</tspan></tspan></text></g></g><g id="SvgjsG1620" transform="translate(501.5,478)"><path id="SvgjsPath1621" d="M 0 0L 103 0L 103 191L 0 191Z" stroke="rgba(50,50,50,1)" stroke-width="2" fill-opacity="1" fill="#6666ff"></path><g id="SvgjsG1622"><text id="SvgjsText1623" font-family="微软雅黑" text-anchor="middle" font-size="20px" width="83px" fill="#323232" font-weight="700" align="middle" anchor="middle" family="微软雅黑" size="20px" weight="700" font-style="" opacity="1" y="55" transform="rotate(0)"><tspan id="SvgjsTspan1624" dy="25" x="51.5"><tspan id="SvgjsTspan1625" style="text-decoration:;">元空间</tspan></tspan><tspan id="SvgjsTspan1626" dy="25" x="51.5"><tspan id="SvgjsTspan1627" style="text-decoration:;">(Meta </tspan></tspan><tspan id="SvgjsTspan1628" dy="25" x="51.5"><tspan id="SvgjsTspan1629" style="text-decoration:;">space)</tspan></tspan></text></g></g><g id="SvgjsG1630" transform="translate(612.5,478)"><path id="SvgjsPath1631" d="M 0 191Q 9 191 9 182L 9 104.5Q 9 95.5 22 95.5Q 9 95.5 9 86.5L 9 9Q 9 0 0 0" stroke="rgba(50,50,50,1)" stroke-width="2" fill="none"></path><path id="SvgjsPath1632" d="M 0 0L 162 0L 162 191L 0 191Z" stroke="none" fill="none"></path><g id="SvgjsG1633"><text id="SvgjsText1634" font-family="微软雅黑" text-anchor="start" font-size="16px" width="135px" fill="#323232" font-weight="700" align="middle" anchor="start" family="微软雅黑" size="16px" weight="700" font-style="" opacity="1" y="83.1" transform="rotate(0)"><tspan id="SvgjsTspan1635" dy="20" x="27"><tspan id="SvgjsTspan1636" style="text-decoration:;">方法区 （JDK 8）</tspan></tspan></text></g></g></svg>