<svg id="SvgjsSvg1006" width="846" height="574" xmlns="http://www.w3.org/2000/svg" version="1.1" xmlns:xlink="http://www.w3.org/1999/xlink" xmlns:svgjs="http://svgjs.com/svgjs"><defs id="SvgjsDefs1007"></defs><g id="SvgjsG1008" transform="translate(365,25)"><path id="SvgjsPath1009" d="M 0 4Q 0 0 4 0L 451.5 0Q 455.5 0 455.5 4L 455.5 233Q 455.5 237 451.5 237L 4 237Q 0 237 0 233Z" stroke="rgba(0,127,255,1)" stroke-width="2" fill-opacity="1" fill="#3399ff"></path><g id="SvgjsG1010"><text id="SvgjsText1011" font-family="微软雅黑" text-anchor="middle" font-size="19px" width="446px" fill="#ffffff" font-weight="700" align="middle" anchor="middle" family="微软雅黑" size="19px" weight="700" font-style="" opacity="1" y="3.078571428571427" transform="rotate(0)"><tspan id="SvgjsTspan1012" dy="23" x="228"><tspan id="SvgjsTspan1013" style="text-decoration:;">JVM 运行时数据区</tspan></tspan></text></g></g><g id="SvgjsG1014" transform="translate(369,79)"><path id="SvgjsPath1015" d="M 0 4Q 0 0 4 0L 203 0Q 207 0 207 4L 207 174Q 207 178 203 178L 4 178Q 0 178 0 174Z" stroke="rgba(102,178,255,1)" stroke-width="2" fill-opacity="1" fill="#3399ff"></path><g id="SvgjsG1016"><text id="SvgjsText1017" font-family="微软雅黑" text-anchor="middle" font-size="19px" width="197px" fill="#ffffff" font-weight="400" align="middle" anchor="middle" family="微软雅黑" size="19px" weight="400" font-style="" opacity="1" y="-1.1357142857142866" transform="rotate(0)"><tspan id="SvgjsTspan1018" dy="23" x="103.5"><tspan id="SvgjsTspan1019" style="text-decoration:;">线程共享部分</tspan></tspan></text></g></g><g id="SvgjsG1020" transform="translate(365,299)"><path id="SvgjsPath1021" d="M 0 4Q 0 0 4 0L 451.5 0Q 455.5 0 455.5 4L 455.5 246Q 455.5 250 451.5 250L 4 250Q 0 250 0 246Z" stroke="rgba(229,229,229,1)" stroke-width="2" fill-opacity="1" fill="#99ccff"></path><g id="SvgjsG1022"><text id="SvgjsText1023" font-family="微软雅黑" text-anchor="middle" font-size="19px" width="446px" fill="#ffffff" font-weight="700" align="middle" anchor="middle" family="微软雅黑" size="19px" weight="700" font-style="italic" opacity="1" y="4.007142857142858" transform="rotate(0)"><tspan id="SvgjsTspan1024" dy="23" x="228"><tspan id="SvgjsTspan1025" style="text-decoration:;">方法区</tspan></tspan></text></g></g><g id="SvgjsG1026" transform="translate(25,46)"><path id="SvgjsPath1027" d="M 0 0L 64 0L 80 16L 80 100L 0 100L 0 0Z" stroke="none" fill-opacity="1" fill="#3399ff"></path><path id="SvgjsPath1028" d="M 64 0L 64 16L 80 16Z" stroke="none" fill-opacity="1" fill="#cdcdcd"></path><path id="SvgjsPath1029" d="M 0 0L 64 0L 80 16L 80 100L 0 100L 0 0Z" stroke="none" fill="none"></path><g id="SvgjsG1030"><text id="SvgjsText1031" font-family="微软雅黑" text-anchor="middle" font-size="19px" width="60px" fill="#ffffff" font-weight="700" align="middle" anchor="middle" family="微软雅黑" size="19px" weight="700" font-style="" opacity="1" y="23.15" transform="rotate(0)"><tspan id="SvgjsTspan1032" dy="23" x="40"><tspan id="SvgjsTspan1033" style="text-decoration:;">.java</tspan></tspan><tspan id="SvgjsTspan1034" dy="23" x="40"><tspan id="SvgjsTspan1035" style="text-decoration:;">源代码</tspan></tspan></text></g></g><g id="SvgjsG1036" transform="translate(195,46)"><path id="SvgjsPath1037" d="M 0 0L 64 0L 80 16L 80 100L 0 100L 0 0Z" stroke="none" fill-opacity="1" fill="#007fff"></path><path id="SvgjsPath1038" d="M 64 0L 64 16L 80 16Z" stroke="none" fill-opacity="1" fill="#cdcdcd"></path><path id="SvgjsPath1039" d="M 0 0L 64 0L 80 16L 80 100L 0 100L 0 0Z" stroke="none" fill="none"></path><g id="SvgjsG1040"><text id="SvgjsText1041" font-family="微软雅黑" text-anchor="middle" font-size="19px" width="60px" fill="#ffffff" font-weight="700" align="middle" anchor="middle" family="微软雅黑" size="19px" weight="700" font-style="" opacity="1" y="23.15" transform="rotate(0)"><tspan id="SvgjsTspan1042" dy="23" x="40"><tspan id="SvgjsTspan1043" style="text-decoration:;">.class</tspan></tspan><tspan id="SvgjsTspan1044" dy="23" x="40"><tspan id="SvgjsTspan1045" style="text-decoration:;">字节码</tspan></tspan></text></g></g><g id="SvgjsG1046" transform="translate(105,72)"><path id="SvgjsPath1047" d="M 0 19.8L 60 19.8L 60 0L 90 30L 60 60L 60 40.2L 0 40.2L 0 19.8Z" stroke="rgba(0,127,255,1)" stroke-width="2" fill-opacity="1" fill="#3399ff"></path><g id="SvgjsG1048"><text id="SvgjsText1049" font-family="微软雅黑" text-anchor="middle" font-size="19px" width="90px" fill="#ffffff" font-weight="700" align="middle" anchor="middle" family="微软雅黑" size="19px" weight="700" font-style="" opacity="1" y="15.15" transform="rotate(0)"><tspan id="SvgjsTspan1050" dy="23" x="45"><tspan id="SvgjsTspan1051" style="text-decoration:;">编译</tspan></tspan></text></g></g><g id="SvgjsG1052" transform="translate(275,72)"><path id="SvgjsPath1053" d="M 0 19.8L 60 19.8L 60 0L 90 30L 60 60L 60 40.2L 0 40.2L 0 19.8Z" stroke="rgba(0,102,204,1)" stroke-width="2" fill-opacity="1" fill="#3399ff"></path><g id="SvgjsG1054"><text id="SvgjsText1055" font-family="微软雅黑" text-anchor="middle" font-size="19px" width="90px" fill="#ffffff" font-weight="700" align="middle" anchor="middle" family="微软雅黑" size="19px" weight="700" font-style="" opacity="1" y="15.15" transform="rotate(0)"><tspan id="SvgjsTspan1056" dy="23" x="45"><tspan id="SvgjsTspan1057" style="text-decoration:;"> </tspan></tspan></text></g></g><g id="SvgjsG1058" transform="translate(583,79)"><path id="SvgjsPath1059" d="M 0 4Q 0 0 4 0L 233.5 0Q 237.5 0 237.5 4L 237.5 174Q 237.5 178 233.5 178L 4 178Q 0 178 0 174Z" stroke="rgba(0,127,255,1)" stroke-width="2" fill-opacity="1" fill="#007fff"></path><g id="SvgjsG1060"><text id="SvgjsText1061" font-family="微软雅黑" text-anchor="middle" font-size="19px" width="228px" fill="#ffffff" font-weight="400" align="middle" anchor="middle" family="微软雅黑" size="19px" weight="400" font-style="" opacity="1" y="-1.1357142857142866" transform="rotate(0)"><tspan id="SvgjsTspan1062" dy="23" x="119"><tspan id="SvgjsTspan1063" style="text-decoration:;">线程私有部分</tspan></tspan></text></g></g><g id="SvgjsG1064" transform="translate(379.5,120)"><path id="SvgjsPath1065" d="M 0 4Q 0 0 4 0L 182 0Q 186 0 186 4L 186 53Q 186 57 182 57L 4 57Q 0 57 0 53Z" stroke="rgba(0,127,255,1)" stroke-width="2" fill-opacity="1" fill="#0066cc"></path><g id="SvgjsG1066"><text id="SvgjsText1067" font-family="微软雅黑" text-anchor="middle" font-size="19px" width="166px" fill="#ffffff" font-weight="700" align="middle" anchor="middle" family="微软雅黑" size="19px" weight="700" font-style="" opacity="1" y="13.65" transform="rotate(0)"><tspan id="SvgjsTspan1068" dy="23" x="93"><tspan id="SvgjsTspan1069" style="text-decoration:;">堆内存</tspan></tspan></text></g></g><g id="SvgjsG1070" transform="translate(379.5,192)"><path id="SvgjsPath1071" d="M 0 4Q 0 0 4 0L 182 0Q 186 0 186 4L 186 53Q 186 57 182 57L 4 57Q 0 57 0 53Z" stroke="rgba(0,127,255,1)" stroke-width="2" fill-opacity="1" fill="#0066cc"></path><g id="SvgjsG1072"><text id="SvgjsText1073" font-family="微软雅黑" text-anchor="middle" font-size="19px" width="166px" fill="#ffffff" font-weight="700" align="middle" anchor="middle" family="微软雅黑" size="19px" weight="700" font-style="italic" opacity="1" y="13.65" transform="rotate(0)"><tspan id="SvgjsTspan1074" dy="23" x="93"><tspan id="SvgjsTspan1075" style="text-decoration:;">方法区</tspan></tspan></text></g></g><g id="SvgjsG1076" transform="translate(589.5,120)"><path id="SvgjsPath1077" d="M 0 4Q 0 0 4 0L 100.5 0Q 104.5 0 104.5 4L 104.5 53Q 104.5 57 100.5 57L 4 57Q 0 57 0 53Z" stroke="rgba(0,127,255,1)" stroke-width="2" fill-opacity="1" fill="#004c99"></path><g id="SvgjsG1078"><text id="SvgjsText1079" font-family="微软雅黑" text-anchor="middle" font-size="19px" width="85px" fill="#ffffff" font-weight="700" align="middle" anchor="middle" family="微软雅黑" size="19px" weight="700" font-style="" opacity="1" y="13.65" transform="rotate(0)"><tspan id="SvgjsTspan1080" dy="23" x="52.5"><tspan id="SvgjsTspan1081" style="text-decoration:;">虚拟机栈</tspan></tspan></text></g></g><g id="SvgjsG1082" transform="translate(589.5,192)"><path id="SvgjsPath1083" d="M 0 4Q 0 0 4 0L 220.5 0Q 224.5 0 224.5 4L 224.5 53Q 224.5 57 220.5 57L 4 57Q 0 57 0 53Z" stroke="rgba(0,127,255,1)" stroke-width="2" fill-opacity="1" fill="#004c99"></path><g id="SvgjsG1084"><text id="SvgjsText1085" font-family="微软雅黑" text-anchor="middle" font-size="19px" width="205px" fill="#ffffff" font-weight="700" align="middle" anchor="middle" family="微软雅黑" size="19px" weight="700" font-style="" opacity="1" y="13.65" transform="rotate(0)"><tspan id="SvgjsTspan1086" dy="23" x="112.5"><tspan id="SvgjsTspan1087" style="text-decoration:;">程序计数器</tspan></tspan></text></g></g><g id="SvgjsG1088" transform="translate(698,120)"><path id="SvgjsPath1089" d="M 0 4Q 0 0 4 0L 112 0Q 116 0 116 4L 116 53Q 116 57 112 57L 4 57Q 0 57 0 53Z" stroke="rgba(0,127,255,1)" stroke-width="2" fill-opacity="1" fill="#004c99"></path><g id="SvgjsG1090"><text id="SvgjsText1091" font-family="微软雅黑" text-anchor="middle" font-size="19px" width="96px" fill="#ffffff" font-weight="700" align="middle" anchor="middle" family="微软雅黑" size="19px" weight="700" font-style="" opacity="1" y="13.65" transform="rotate(0)"><tspan id="SvgjsTspan1092" dy="23" x="58"><tspan id="SvgjsTspan1093" style="text-decoration:;">本地方法栈</tspan></tspan></text></g></g><g id="SvgjsG1094" transform="translate(187,299)"><path id="SvgjsPath1095" d="M 173 0Q 164 0 164 9L 164 116Q 164 125 151 125Q 164 125 164 134L 164 241Q 164 250 173 250" stroke="rgba(0,102,204,1)" stroke-width="2" fill="none"></path><path id="SvgjsPath1096" d="M 0 0L 173 0L 173 250L 0 250Z" stroke="none" fill="none"></path><g id="SvgjsG1097"><text id="SvgjsText1098" font-family="微软雅黑" text-anchor="end" font-size="18px" width="146px" fill="#0066cc" font-weight="700" align="middle" anchor="end" family="微软雅黑" size="18px" weight="700" font-style="" opacity="1" y="110.8" transform="rotate(0)"><tspan id="SvgjsTspan1099" dy="22" x="146"><tspan id="SvgjsTspan1100" style="text-decoration:;">加载信息到方法区</tspan></tspan></text></g></g><g id="SvgjsG1101" transform="translate(388,353)"><path id="SvgjsPath1102" d="M 0 0L 110 0L 110 47L 0 47Z" stroke="rgba(0,76,153,1)" stroke-width="2" fill-opacity="1" fill="#0066cc"></path><g id="SvgjsG1103"><text id="SvgjsText1104" font-family="微软雅黑" text-anchor="middle" font-size="17px" width="90px" fill="#ffffff" font-weight="700" align="middle" anchor="middle" family="微软雅黑" size="17px" weight="700" font-style="" opacity="1" y="-0.04999999999999982" transform="rotate(0)"><tspan id="SvgjsTspan1105" dy="21" x="55"><tspan id="SvgjsTspan1106" style="text-decoration:;">类信息</tspan></tspan><tspan id="SvgjsTspan1107" dy="21" x="55"><tspan id="SvgjsTspan1108" style="text-decoration:;">Demo1...</tspan></tspan></text></g></g><g id="SvgjsG1109" transform="translate(408,373)"><path id="SvgjsPath1110" d="M 0 0L 110 0L 110 47L 0 47Z" stroke="rgba(0,76,153,1)" stroke-width="2" fill-opacity="1" fill="#0066cc"></path><g id="SvgjsG1111"><text id="SvgjsText1112" font-family="微软雅黑" text-anchor="middle" font-size="17px" width="90px" fill="#ffffff" font-weight="700" align="middle" anchor="middle" family="微软雅黑" size="17px" weight="700" font-style="" opacity="1" y="-0.04999999999999982" transform="rotate(0)"><tspan id="SvgjsTspan1113" dy="21" x="55"><tspan id="SvgjsTspan1114" style="text-decoration:;">类信息</tspan></tspan><tspan id="SvgjsTspan1115" dy="21" x="55"><tspan id="SvgjsTspan1116" style="text-decoration:;">Demo1...</tspan></tspan></text></g></g><g id="SvgjsG1117" transform="translate(428,393)"><path id="SvgjsPath1118" d="M 0 0L 110 0L 110 47L 0 47Z" stroke="rgba(0,76,153,1)" stroke-width="2" fill-opacity="1" fill="#0066cc"></path><g id="SvgjsG1119"><text id="SvgjsText1120" font-family="微软雅黑" text-anchor="middle" font-size="17px" width="90px" fill="#ffffff" font-weight="700" align="middle" anchor="middle" family="微软雅黑" size="17px" weight="700" font-style="" opacity="1" y="-0.04999999999999982" transform="rotate(0)"><tspan id="SvgjsTspan1121" dy="21" x="55"><tspan id="SvgjsTspan1122" style="text-decoration:;">类信息</tspan></tspan><tspan id="SvgjsTspan1123" dy="21" x="55"><tspan id="SvgjsTspan1124" style="text-decoration:;">Demo1...</tspan></tspan></text></g></g><g id="SvgjsG1125" transform="translate(448,413)"><path id="SvgjsPath1126" d="M 0 0L 110 0L 110 47L 0 47Z" stroke="rgba(0,76,153,1)" stroke-width="2" fill-opacity="1" fill="#0066cc"></path><g id="SvgjsG1127"><text id="SvgjsText1128" font-family="微软雅黑" text-anchor="middle" font-size="17px" width="90px" fill="#ffffff" font-weight="700" align="middle" anchor="middle" family="微软雅黑" size="17px" weight="700" font-style="" opacity="1" y="-0.04999999999999982" transform="rotate(0)"><tspan id="SvgjsTspan1129" dy="21" x="55"><tspan id="SvgjsTspan1130" style="text-decoration:;">类信息</tspan></tspan><tspan id="SvgjsTspan1131" dy="21" x="55"><tspan id="SvgjsTspan1132" style="text-decoration:;">Demo1...</tspan></tspan></text></g></g><g id="SvgjsG1133" transform="translate(468,433)"><path id="SvgjsPath1134" d="M 0 0L 110 0L 110 47L 0 47Z" stroke="rgba(0,76,153,1)" stroke-width="2" fill-opacity="1" fill="#0066cc"></path><g id="SvgjsG1135"><text id="SvgjsText1136" font-family="微软雅黑" text-anchor="middle" font-size="17px" width="90px" fill="#ffffff" font-weight="700" align="middle" anchor="middle" family="微软雅黑" size="17px" weight="700" font-style="" opacity="1" y="-0.04999999999999982" transform="rotate(0)"><tspan id="SvgjsTspan1137" dy="21" x="55"><tspan id="SvgjsTspan1138" style="text-decoration:;">类信息</tspan></tspan><tspan id="SvgjsTspan1139" dy="21" x="55"><tspan id="SvgjsTspan1140" style="text-decoration:;">Demo1...</tspan></tspan></text></g></g><g id="SvgjsG1141" transform="translate(488,453)"><path id="SvgjsPath1142" d="M 0 0L 110 0L 110 47L 0 47Z" stroke="rgba(0,76,153,1)" stroke-width="2" fill-opacity="1" fill="#0066cc"></path><g id="SvgjsG1143"><text id="SvgjsText1144" font-family="微软雅黑" text-anchor="middle" font-size="17px" width="90px" fill="#ffffff" font-weight="700" align="middle" anchor="middle" family="微软雅黑" size="17px" weight="700" font-style="" opacity="1" y="-0.04999999999999982" transform="rotate(0)"><tspan id="SvgjsTspan1145" dy="21" x="55"><tspan id="SvgjsTspan1146" style="text-decoration:;">类信息</tspan></tspan><tspan id="SvgjsTspan1147" dy="21" x="55"><tspan id="SvgjsTspan1148" style="text-decoration:;">Demo1...</tspan></tspan></text></g></g><g id="SvgjsG1149" transform="translate(649,353)"><path id="SvgjsPath1150" d="M 0 0L 149 0L 149 67L 0 67Z" stroke="rgba(51,153,255,1)" stroke-width="2" fill-opacity="1" fill="#0066cc"></path><g id="SvgjsG1151"><text id="SvgjsText1152" font-family="微软雅黑" text-anchor="middle" font-size="17px" width="129px" fill="#ffffff" font-weight="700" align="middle" anchor="middle" family="微软雅黑" size="17px" weight="700" font-style="" opacity="1" y="9.95" transform="rotate(0)"><tspan id="SvgjsTspan1153" dy="21" x="74.5"><tspan id="SvgjsTspan1154" style="text-decoration:;">运行时常量池</tspan></tspan><tspan id="SvgjsTspan1155" dy="21" x="74.5"><tspan id="SvgjsTspan1156" style="text-decoration:;font-style: italic;fill: rgb(207, 207, 207);">字符串常量</tspan></tspan></text></g></g><g id="SvgjsG1157" transform="translate(649,443)"><path id="SvgjsPath1158" d="M 0 0L 149 0L 149 67L 0 67Z" stroke="rgba(51,153,255,1)" stroke-width="2" fill-opacity="1" fill="#0066cc"></path><g id="SvgjsG1159"><text id="SvgjsText1160" font-family="微软雅黑" text-anchor="middle" font-size="17px" width="129px" fill="#ffffff" font-weight="700" align="middle" anchor="middle" family="微软雅黑" size="17px" weight="700" font-style="" opacity="1" y="20.45" transform="rotate(0)"><tspan id="SvgjsTspan1161" dy="21" x="74.5"><tspan id="SvgjsTspan1162" style="text-decoration:;">一些其他的</tspan></tspan></text></g></g><g id="SvgjsG1163" transform="translate(508,473)"><path id="SvgjsPath1164" d="M 0 0L 110 0L 110 47L 0 47Z" stroke="rgba(0,76,153,1)" stroke-width="2" fill-opacity="1" fill="#0066cc"></path><g id="SvgjsG1165"><text id="SvgjsText1166" font-family="微软雅黑" text-anchor="middle" font-size="17px" width="90px" fill="#ffffff" font-weight="700" align="middle" anchor="middle" family="微软雅黑" size="17px" weight="700" font-style="" opacity="1" y="-0.04999999999999982" transform="rotate(0)"><tspan id="SvgjsTspan1167" dy="21" x="55"><tspan id="SvgjsTspan1168" style="text-decoration:;">类信息</tspan></tspan><tspan id="SvgjsTspan1169" dy="21" x="55"><tspan id="SvgjsTspan1170" style="text-decoration:;">Demo1...</tspan></tspan></text></g></g></svg>